<?xml version="1.0" encoding="iso-8859-1"?>
<!-- Generator: Adobe Illustrator 19.0.0, SVG Export Plug-In . SVG Version: 6.00 Build 0)  -->
<svg version="1.1" id="Capa_1" xmlns="http://www.w3.org/2000/svg" xmlns:xlink="http://www.w3.org/1999/xlink" x="0px" y="0px"
	 viewBox="0 0 512 512" style="enable-background:new 0 0 512 512;" xml:space="preserve">
<g>
	<g>
		<g>
			<path d="M503.15,125.742c-0.071-0.256-0.2-0.482-0.294-0.729c-0.157-0.458-0.354-0.901-0.586-1.326
				c-0.794-1.123-1.757-2.116-2.853-2.946c-0.115-0.071-0.244-0.098-0.36-0.164c-0.109-0.061-0.193-0.155-0.306-0.211L259.816,0.9
				c-2.403-1.2-5.23-1.2-7.633,0L13.25,120.367c-0.115,0.057-0.198,0.152-0.308,0.213c-0.117,0.064-0.246,0.092-0.358,0.162
				c-0.24,0.174-0.47,0.361-0.69,0.559c-0.274,0.196-0.535,0.408-0.783,0.635c-0.3,0.311-0.576,0.644-0.825,0.997
				c-0.198,0.241-0.384,0.493-0.555,0.754c-0.231,0.422-0.426,0.863-0.582,1.318c-0.112,0.241-0.211,0.488-0.298,0.739
				c-0.206,0.734-0.313,1.493-0.317,2.256v256c-0.001,3.232,1.825,6.188,4.717,7.633L252.183,511.1
				c0.127,0.063,0.271,0.038,0.4,0.094c2.151,1.074,4.682,1.074,6.833,0c0.129-0.056,0.273-0.031,0.4-0.094L498.75,391.633
				c2.891-1.446,4.717-4.401,4.717-7.633V128C503.463,127.236,503.356,126.477,503.15,125.742z M256,18.075L475.85,128
				l-66.25,33.125L189.75,51.2L256,18.075z M170.666,60.742l219.85,109.925l-15.05,7.525L155.617,68.267L170.666,60.742z
				 M401.066,184.475v15.05l-51.2,25.6v-15.05L401.066,184.475z M136.533,77.808l219.85,109.925l-15.05,7.525L121.483,85.333
				L136.533,77.808z M247.466,489.658L25.6,378.725V141.808l221.867,110.933V489.658z M256,237.925L36.15,128l66.25-33.125
				L322.25,204.8L256,237.925z M486.4,378.725L264.533,489.658V252.742l68.267-34.133v20.325c0.001,2.957,1.532,5.704,4.048,7.258
				s5.657,1.697,8.302,0.375l68.267-34.133c2.891-1.446,4.717-4.401,4.717-7.633v-28.858l68.267-34.133V378.725z"/>
			<path d="M410.5,228.942l-75.9,37.95c-11.592,5.75-18.909,17.589-18.867,30.529v4.504c-0.014,5.921,3.046,11.425,8.083,14.538
				c5.036,3.113,11.328,3.389,16.617,0.729l75.9-37.95c11.592-5.75,18.909-17.589,18.867-30.529v-4.504
				c0.002-5.916-3.06-11.411-8.093-14.521S415.79,226.295,410.5,228.942z M418.133,248.713c0.021,6.469-3.637,12.388-9.433,15.263
				l-75.9,37.95v-4.504c-0.021-6.469,3.637-12.388,9.433-15.263l75.9-37.95V248.713z"/>
		</g>
	</g>
</g>
<g>
</g>
<g>
</g>
<g>
</g>
<g>
</g>
<g>
</g>
<g>
</g>
<g>
</g>
<g>
</g>
<g>
</g>
<g>
</g>
<g>
</g>
<g>
</g>
<g>
</g>
<g>
</g>
<g>
</g>
</svg>
